<svg width="106" height="17" viewBox="0 0 106 17" fill="none" xmlns="http://www.w3.org/2000/svg">
<path d="M5.57585 8.5221H10.5205V15.3287C10.296 15.5055 10.0225 15.6676 9.69987 15.8149C9.39127 15.9622 9.05462 16.0875 8.68991 16.1906C8.33923 16.2937 7.9675 16.3674 7.57474 16.4116C7.196 16.4705 6.82428 16.5 6.45957 16.5C5.51974 16.5 4.65706 16.3453 3.87153 16.0359C3.08601 15.7118 2.40568 15.2256 1.83056 14.5773C1.25544 13.9144 0.80657 13.082 0.483942 12.0801C0.161314 11.0635 0 9.87017 0 8.5C0 7.0709 0.196382 5.84807 0.589146 4.83149C0.981911 3.81492 1.49391 2.98987 2.12514 2.35635C2.75636 1.7081 3.46474 1.23665 4.25027 0.941989C5.0358 0.64733 5.82133 0.5 6.60686 0.5C7.44849 0.5 8.14285 0.551565 8.68991 0.654695C9.23697 0.743093 9.69987 0.868323 10.0786 1.03039L9.63675 2.64365C8.96344 2.30479 8.00257 2.13536 6.75414 2.13536C6.165 2.13536 5.57585 2.24586 4.9867 2.46685C4.41158 2.67311 3.89257 3.0267 3.42967 3.52762C2.96677 4.02855 2.58804 4.68416 2.29346 5.49447C1.99889 6.30479 1.8516 7.30663 1.8516 8.5C1.8516 9.59024 1.97083 10.5331 2.2093 11.3287C2.44776 12.1243 2.7774 12.7873 3.19822 13.3177C3.63307 13.8333 4.15208 14.2238 4.75525 14.489C5.35843 14.7394 6.01771 14.8646 6.7331 14.8646C7.63085 14.8646 8.39534 14.6805 9.02656 14.3122V10.0028L5.57585 9.56077V8.5221Z" fill="#1DA02A"/>
<path d="M12.7362 10.7099C12.7362 8.83886 13.1289 7.40976 13.9145 6.42265C14.714 5.42081 15.8573 4.91989 17.3441 4.91989C18.1297 4.91989 18.81 5.05985 19.3851 5.33978C19.9743 5.60497 20.4582 5.9954 20.8369 6.51105C21.2157 7.01197 21.4962 7.62339 21.6786 8.3453C21.8609 9.05249 21.9521 9.8407 21.9521 10.7099C21.9521 12.581 21.5523 14.0175 20.7528 15.0193C19.9673 16.0064 18.831 16.5 17.3441 16.5C16.5586 16.5 15.8713 16.3674 15.2821 16.1022C14.707 15.8223 14.2301 15.4319 13.8514 14.9309C13.4726 14.4153 13.1921 13.8039 13.0097 13.0967C12.8274 12.3748 12.7362 11.5792 12.7362 10.7099ZM14.4826 10.7099C14.4826 11.2698 14.5317 11.8076 14.6299 12.3232C14.7421 12.8389 14.9104 13.2882 15.1348 13.6713C15.3593 14.0543 15.6539 14.3637 16.0186 14.5994C16.3833 14.8352 16.8251 14.953 17.3441 14.953C19.2519 14.9678 20.2057 13.5534 20.2057 10.7099C20.2057 10.1354 20.1496 9.59024 20.0374 9.07459C19.9392 8.55893 19.7779 8.10958 19.5534 7.72652C19.329 7.34346 19.0344 7.04144 18.6697 6.82044C18.305 6.58471 17.8632 6.46685 17.3441 6.46685C15.4364 6.45212 14.4826 7.86648 14.4826 10.7099Z" fill="#1DA02A"/>
<path d="M24.0169 10.7099C24.0169 8.83886 24.4097 7.40976 25.1952 6.42265C25.9948 5.42081 27.138 4.91989 28.6249 4.91989C29.4104 4.91989 30.0907 5.05985 30.6659 5.33978C31.255 5.60497 31.7389 5.9954 32.1177 6.51105C32.4964 7.01197 32.777 7.62339 32.9593 8.3453C33.1417 9.05249 33.2329 9.8407 33.2329 10.7099C33.2329 12.581 32.8331 14.0175 32.0335 15.0193C31.248 16.0064 30.1118 16.5 28.6249 16.5C27.8394 16.5 27.152 16.3674 26.5629 16.1022C25.9878 15.8223 25.5108 15.4319 25.1321 14.9309C24.7534 14.4153 24.4728 13.8039 24.2905 13.0967C24.1081 12.3748 24.0169 11.5792 24.0169 10.7099ZM25.7633 10.7099C25.7633 11.2698 25.8124 11.8076 25.9106 12.3232C26.0228 12.8389 26.1912 13.2882 26.4156 13.6713C26.64 14.0543 26.9346 14.3637 27.2993 14.5994C27.664 14.8352 28.1059 14.953 28.6249 14.953C30.5326 14.9678 31.4865 13.5534 31.4865 10.7099C31.4865 10.1354 31.4303 9.59024 31.3181 9.07459C31.2199 8.55893 31.0586 8.10958 30.8342 7.72652C30.6098 7.34346 30.3152 7.04144 29.9505 6.82044C29.5858 6.58471 29.1439 6.46685 28.6249 6.46685C26.7172 6.45212 25.7633 7.86648 25.7633 10.7099Z" fill="#1DA02A"/>
<path d="M43.9665 12.4337C43.9665 13.1851 43.9735 13.8702 43.9876 14.489C44.0016 15.093 44.0647 15.6897 44.1769 16.279H43.0407L42.6199 14.7099H42.5357C42.2552 15.2256 41.8484 15.6529 41.3154 15.9917C40.7823 16.3306 40.1581 16.5 39.4427 16.5C38.04 16.5 36.995 16.0359 36.3076 15.1077C35.6343 14.1796 35.2977 12.7284 35.2977 10.7541C35.2977 8.86832 35.7185 7.43923 36.5601 6.46685C37.4158 5.47974 38.5871 4.98619 40.074 4.98619C40.593 4.98619 40.9998 5.01565 41.2943 5.07459C41.6029 5.13352 41.9326 5.22928 42.2833 5.36188V0.765193H43.9665V12.4337ZM39.7163 14.953C40.4317 14.953 40.9998 14.7615 41.4206 14.3785C41.8414 13.9807 42.129 13.384 42.2833 12.5884V7.10773C42.0308 6.90147 41.7432 6.75414 41.4206 6.66575C41.0979 6.57735 40.6701 6.53315 40.1371 6.53315C39.1692 6.53315 38.4117 6.87201 37.8647 7.54972C37.3176 8.21271 37.0441 9.28085 37.0441 10.7541C37.0441 11.3582 37.0861 11.918 37.1703 12.4337C37.2685 12.9494 37.4228 13.3913 37.6332 13.7597C37.8436 14.128 38.1171 14.4227 38.4538 14.6436C38.8045 14.8499 39.2253 14.953 39.7163 14.953Z" fill="#1DA02A"/>
<path d="M52.3426 8.5221H57.2873V15.3287C57.0628 15.5055 56.7893 15.6676 56.4667 15.8149C56.1581 15.9622 55.8214 16.0875 55.4567 16.1906C55.106 16.2937 54.7343 16.3674 54.3415 16.4116C53.9628 16.4705 53.5911 16.5 53.2264 16.5C52.2865 16.5 51.4238 16.3453 50.6383 16.0359C49.8528 15.7118 49.1725 15.2256 48.5973 14.5773C48.0222 13.9144 47.5734 13.082 47.2507 12.0801C46.9281 11.0635 46.7668 9.87017 46.7668 8.5C46.7668 7.0709 46.9632 5.84807 47.3559 4.83149C47.7487 3.81492 48.2607 2.98987 48.8919 2.35635C49.5231 1.7081 50.2315 1.23665 51.0171 0.941989C51.8026 0.64733 52.5881 0.5 53.3736 0.5C54.2153 0.5 54.9096 0.551565 55.4567 0.654695C56.0038 0.743093 56.4667 0.868323 56.8454 1.03039L56.4035 2.64365C55.7302 2.30479 54.7694 2.13536 53.5209 2.13536C52.9318 2.13536 52.3426 2.24586 51.7535 2.46685C51.1784 2.67311 50.6594 3.0267 50.1965 3.52762C49.7336 4.02855 49.3548 4.68416 49.0602 5.49447C48.7657 6.30479 48.6184 7.30663 48.6184 8.5C48.6184 9.59024 48.7376 10.5331 48.9761 11.3287C49.2145 12.1243 49.5442 12.7873 49.965 13.3177C50.3998 13.8333 50.9189 14.2238 51.522 14.489C52.1252 14.7394 52.7845 14.8646 53.4999 14.8646C54.3976 14.8646 55.1621 14.6805 55.7934 14.3122V10.0028L52.3426 9.56077V8.5221Z" fill="#746C6C"/>
<path d="M65.0578 6.88674C64.6369 6.73941 64.2372 6.66575 63.8584 6.66575C63.2553 6.66575 62.7783 6.84254 62.4277 7.19613C62.077 7.53499 61.8596 7.96961 61.7754 8.5V16.2348H60.0921V5.18508H61.2704L61.586 6.53315H61.6702C61.9367 6.03223 62.2523 5.64917 62.617 5.38398C62.9958 5.10405 63.4727 4.96409 64.0478 4.96409C64.4546 4.96409 64.9105 5.03775 65.4155 5.18508L65.0578 6.88674Z" fill="#746C6C"/>
<path d="M67.0744 6.00276C67.6074 5.6639 68.2247 5.41344 68.926 5.25138C69.6414 5.08932 70.3849 5.00829 71.1564 5.00829C71.8858 5.00829 72.4679 5.11142 72.9028 5.31768C73.3516 5.52394 73.6883 5.7965 73.9127 6.13536C74.1512 6.45948 74.3055 6.82044 74.3756 7.21823C74.4598 7.61602 74.5019 8.01381 74.5019 8.4116C74.5019 9.29558 74.4808 10.1575 74.4387 10.9972C74.3967 11.837 74.3756 12.6326 74.3756 13.384C74.3756 13.9291 74.3967 14.4448 74.4387 14.9309C74.4808 15.4171 74.558 15.8665 74.6702 16.279H73.4288L72.9869 14.732H72.8817C72.7555 14.9383 72.5942 15.1446 72.3978 15.3508C72.2154 15.5424 71.991 15.7192 71.7245 15.8812C71.4579 16.0285 71.1493 16.1538 70.7987 16.2569C70.448 16.36 70.0482 16.4116 69.5993 16.4116C69.1505 16.4116 68.7296 16.3379 68.3369 16.1906C67.9581 16.0433 67.6285 15.837 67.3479 15.5718C67.0674 15.2919 66.843 14.9604 66.6746 14.5773C66.5203 14.1943 66.4432 13.7597 66.4432 13.2735C66.4432 12.6252 66.5694 12.0875 66.8219 11.6602C67.0744 11.2182 67.4251 10.872 67.874 10.6215C68.3369 10.3564 68.8839 10.1722 69.5152 10.0691C70.1604 9.9512 70.8688 9.89227 71.6403 9.89227C71.8367 9.89227 72.026 9.89227 72.2084 9.89227C72.4048 9.89227 72.6012 9.907 72.7976 9.93646C72.8396 9.49447 72.8607 9.09668 72.8607 8.74309C72.8607 7.93278 72.7064 7.36556 72.3978 7.04144C72.0892 6.71731 71.5281 6.55525 70.7145 6.55525C70.476 6.55525 70.2165 6.57735 69.936 6.62155C69.6695 6.65101 69.3889 6.70258 69.0943 6.77624C68.8138 6.83517 68.5403 6.91621 68.2738 7.01934C68.0213 7.10774 67.7968 7.21087 67.6004 7.32873L67.0744 6.00276ZM70.0622 14.8646C70.455 14.8646 70.8057 14.8131 71.1143 14.7099C71.4229 14.5921 71.6894 14.4521 71.9138 14.2901C72.1383 14.1133 72.3206 13.9217 72.4609 13.7155C72.6152 13.5092 72.7274 13.3103 72.7976 13.1188V11.2845C72.6012 11.2698 72.3978 11.2624 72.1874 11.2624C71.991 11.2477 71.7946 11.2403 71.5982 11.2403C71.1634 11.2403 70.7355 11.2698 70.3147 11.3287C69.9079 11.3729 69.5432 11.4687 69.2206 11.616C68.912 11.7486 68.6595 11.9401 68.4631 12.1906C68.2808 12.4263 68.1896 12.7284 68.1896 13.0967C68.1896 13.6123 68.3649 14.0396 68.7156 14.3785C69.0663 14.7026 69.5152 14.8646 70.0622 14.8646Z" fill="#746C6C"/>
<path d="M85.7607 12.4337C85.7607 13.1851 85.7678 13.8702 85.7818 14.489C85.7958 15.093 85.8589 15.6897 85.9712 16.279H84.8349L84.4141 14.7099H84.33C84.0494 15.2256 83.6426 15.6529 83.1096 15.9917C82.5766 16.3306 81.9523 16.5 81.2369 16.5C79.8342 16.5 78.7892 16.0359 78.1018 15.1077C77.4285 14.1796 77.0919 12.7284 77.0919 10.7541C77.0919 8.86832 77.5127 7.43923 78.3543 6.46685C79.21 5.47974 80.3813 4.98619 81.8682 4.98619C82.3872 4.98619 82.794 5.01565 83.0885 5.07459C83.3971 5.13352 83.7268 5.22928 84.0775 5.36188V0.765193H85.7607V12.4337ZM81.5105 14.953C82.2259 14.953 82.794 14.7615 83.2148 14.3785C83.6356 13.9807 83.9232 13.384 84.0775 12.5884V7.10773C83.825 6.90147 83.5374 6.75414 83.2148 6.66575C82.8922 6.57735 82.4643 6.53315 81.9313 6.53315C80.9634 6.53315 80.2059 6.87201 79.6589 7.54972C79.1118 8.21271 78.8383 9.28085 78.8383 10.7541C78.8383 11.3582 78.8804 11.918 78.9645 12.4337C79.0627 12.9494 79.217 13.3913 79.4274 13.7597C79.6378 14.128 79.9114 14.4227 80.248 14.6436C80.5987 14.8499 81.0195 14.953 81.5105 14.953Z" fill="#746C6C"/>
<path d="M96.6828 15.3508C96.262 15.7044 95.729 15.9843 95.0837 16.1906C94.4525 16.3969 93.7792 16.5 93.0638 16.5C92.2642 16.5 91.5699 16.3674 90.9807 16.1022C90.3916 15.8223 89.9076 15.4319 89.5289 14.9309C89.1501 14.4153 88.8696 13.8039 88.6872 13.0967C88.5049 12.3895 88.4137 11.5939 88.4137 10.7099C88.4137 8.82413 88.8135 7.38766 89.613 6.40055C90.4126 5.41344 91.5558 4.91989 93.0427 4.91989C93.5196 4.91989 93.9966 4.97882 94.4735 5.09669C94.9504 5.19982 95.3783 5.40608 95.757 5.71547C96.1357 6.02486 96.4443 6.46685 96.6828 7.04144C96.9213 7.60129 97.0405 8.3453 97.0405 9.27348C97.0405 9.75967 96.9984 10.2974 96.9143 10.8867H90.1601C90.1601 11.535 90.2232 12.1096 90.3495 12.6105C90.4757 13.1114 90.6721 13.5387 90.9386 13.8923C91.2051 14.2311 91.5488 14.4963 91.9696 14.6878C92.4045 14.8646 92.9305 14.953 93.5477 14.953C94.0246 14.953 94.5016 14.8646 94.9785 14.6878C95.4554 14.5111 95.8131 14.3048 96.0516 14.0691L96.6828 15.3508ZM93.0638 6.46685C92.2361 6.46685 91.5699 6.69521 91.0649 7.15193C90.5739 7.60866 90.2793 8.3895 90.1812 9.49448H95.3993C95.3993 8.37477 95.1959 7.59392 94.7891 7.15193C94.3823 6.69521 93.8072 6.46685 93.0638 6.46685Z" fill="#746C6C"/>
<path d="M104.317 13.2293C104.317 12.7873 104.19 12.4411 103.938 12.1906C103.685 11.9401 103.37 11.7339 102.991 11.5718C102.626 11.395 102.22 11.233 101.771 11.0856C101.336 10.9236 100.929 10.7247 100.55 10.4889C100.186 10.2385 99.8771 9.92173 99.6246 9.53867C99.3721 9.15562 99.2458 8.63996 99.2458 7.99171C99.2458 6.93094 99.5334 6.15746 100.109 5.67127C100.684 5.17035 101.483 4.91989 102.507 4.91989C103.265 4.91989 103.896 4.99355 104.401 5.14088C104.92 5.27348 105.369 5.43554 105.748 5.62707L105.348 7.08564C105.025 6.92357 104.632 6.78361 104.169 6.66575C103.721 6.53315 103.237 6.46685 102.718 6.46685C102.1 6.46685 101.645 6.57735 101.35 6.79834C101.069 7.01934 100.929 7.40239 100.929 7.94751C100.929 8.33057 101.055 8.6326 101.308 8.85359C101.56 9.05985 101.869 9.25138 102.234 9.42818C102.612 9.59024 103.019 9.7523 103.454 9.91436C103.903 10.0764 104.31 10.2901 104.674 10.5552C105.053 10.8204 105.369 11.1593 105.621 11.5718C105.874 11.9696 106 12.5 106 13.163C106 13.6344 105.923 14.0764 105.769 14.489C105.628 14.9015 105.404 15.2551 105.095 15.5497C104.787 15.8444 104.401 16.0727 103.938 16.2348C103.489 16.4116 102.956 16.5 102.339 16.5C101.539 16.5 100.859 16.419 100.298 16.2569C99.7368 16.0948 99.2669 15.9033 98.8882 15.6823L99.3931 14.1796C99.7158 14.3711 100.137 14.5479 100.656 14.7099C101.175 14.872 101.701 14.953 102.234 14.953C102.837 14.953 103.335 14.8278 103.728 14.5773C104.12 14.3269 104.317 13.8775 104.317 13.2293Z" fill="#746C6C"/>
</svg>
