<svg width="100" height="100" viewBox="0 0 100 100" fill="none" xmlns="http://www.w3.org/2000/svg">
<circle cx="50" cy="50" r="50" fill="#E8E8E8"/>
<path d="M33.964 50.02H47.536V66.244C46.08 67.4573 44.3293 68.3413 42.284 68.896C40.2733 69.4507 38.28 69.728 36.304 69.728C33.9813 69.728 31.8147 69.364 29.804 68.636C27.828 67.908 26.112 66.7813 24.656 65.256C23.2 63.696 22.056 61.72 21.224 59.328C20.392 56.936 19.976 54.0933 19.976 50.8C19.976 47.368 20.4613 44.456 21.432 42.064C22.4373 39.6373 23.7373 37.6787 25.332 36.188C26.9613 34.6627 28.7813 33.5707 30.792 32.912C32.8027 32.2187 34.848 31.872 36.928 31.872C39.008 31.872 40.828 32.028 42.388 32.34C43.9827 32.652 45.248 32.9813 46.184 33.328L44.728 39.308C43.8613 38.9613 42.8907 38.7013 41.816 38.528C40.7413 38.32 39.372 38.216 37.708 38.216C36.2173 38.216 34.848 38.4413 33.6 38.892C32.352 39.3427 31.26 40.088 30.324 41.128C29.4227 42.1333 28.712 43.4333 28.192 45.028C27.7067 46.6227 27.464 48.564 27.464 50.852C27.464 53.036 27.7067 54.9253 28.192 56.52C28.6773 58.08 29.3533 59.38 30.22 60.42C31.0867 61.4253 32.092 62.1707 33.236 62.656C34.4147 63.1413 35.6627 63.384 36.98 63.384C37.8813 63.384 38.7653 63.28 39.632 63.072C40.4987 62.8293 41.2267 62.4827 41.816 62.032V55.168L33.964 54.336V50.02ZM65.6515 50.02H79.2235V66.244C77.7675 67.4573 76.0168 68.3413 73.9715 68.896C71.9608 69.4507 69.9675 69.728 67.9915 69.728C65.6688 69.728 63.5022 69.364 61.4915 68.636C59.5155 67.908 57.7995 66.7813 56.3435 65.256C54.8875 63.696 53.7435 61.72 52.9115 59.328C52.0795 56.936 51.6635 54.0933 51.6635 50.8C51.6635 47.368 52.1488 44.456 53.1195 42.064C54.1248 39.6373 55.4248 37.6787 57.0195 36.188C58.6488 34.6627 60.4688 33.5707 62.4795 32.912C64.4902 32.2187 66.5355 31.872 68.6155 31.872C70.6955 31.872 72.5155 32.028 74.0755 32.34C75.6702 32.652 76.9355 32.9813 77.8715 33.328L76.4155 39.308C75.5488 38.9613 74.5782 38.7013 73.5035 38.528C72.4288 38.32 71.0595 38.216 69.3955 38.216C67.9048 38.216 66.5355 38.4413 65.2875 38.892C64.0395 39.3427 62.9475 40.088 62.0115 41.128C61.1102 42.1333 60.3995 43.4333 59.8795 45.028C59.3942 46.6227 59.1515 48.564 59.1515 50.852C59.1515 53.036 59.3942 54.9253 59.8795 56.52C60.3648 58.08 61.0408 59.38 61.9075 60.42C62.7742 61.4253 63.7795 62.1707 64.9235 62.656C66.1022 63.1413 67.3502 63.384 68.6675 63.384C69.5688 63.384 70.4528 63.28 71.3195 63.072C72.1862 62.8293 72.9142 62.4827 73.5035 62.032V55.168L65.6515 54.336V50.02Z" fill="#1DA02A"/>
</svg>
